<svg data-v-0dd9719b="" version="1.0" xmlns="http://www.w3.org/2000/svg" xmlns:xlink="http://www.w3.org/1999/xlink" width="100%" height="100%" viewBox="0 0 340.000000 250.000000" preserveAspectRatio="xMidYMid meet" color-interpolation-filters="sRGB" style="margin: auto;"> <rect data-v-0dd9719b="" x="0" y="0" width="100%" height="100%" fill="#ffffff" fill-opacity="1" class="background"></rect> <rect data-v-0dd9719b="" x="0" y="0" width="100%" height="100%" fill="url(#watermark)" fill-opacity="1" class="watermarklayer"></rect> <g data-v-0dd9719b="" fill="#333333" class="icon-text-wrapper icon-svg-group iconsvg" transform="translate(59.98945617675781,95.60000038146973)"><g class="iconsvg-imagesvg" transform="translate(0,0)"><g><rect fill="#333333" fill-opacity="0" stroke-width="2" x="0" y="0" width="58.8" height="58.8" class="image-rect"></rect> <svg x="0" y="0" width="58.8" height="58.8" filtersec="colorsb71750076" class="image-svg-svg primary" style="overflow: visible;"><svg fill="#2966cc" xmlns="http://www.w3.org/2000/svg" xmlns:xlink="http://www.w3.org/1999/xlink" version="1.0" x="0px" y="0px" viewBox="10 10 80 80" enable-background="new 0 0 100 100" xml:space="preserve"><path d="M43.333,53.333l13.334-0.003c13.304,0,24.752-7.815,30.101-19.085c-1.155-2.695-2.624-5.218-4.316-7.569  C79.473,38.151,69.06,46.663,56.667,46.663l-13.334,0.004c-12.451,0-23.753,4.932-32.132,12.91c0.603,2.435,1.416,4.785,2.438,7.021  C20.96,58.474,31.536,53.333,43.333,53.333z"></path><path d="M89.353,43.008C82.109,53.274,70.183,60,56.667,60H43.333c-10.641,0-20.094,5.003-26.197,12.771  c1.309,1.885,2.77,3.655,4.375,5.286c4.827-6.875,12.803-11.39,21.822-11.39h13.334c12.979,0,24.727-5.336,33.193-13.92  C89.922,51.836,90,50.928,90,50C90,47.61,89.753,45.283,89.353,43.008z"></path><path d="M43.333,33.333c-12.061,0-23.277,3.607-32.695,9.756C10.244,45.339,10,47.637,10,50c0,0.573,0.062,1.133,0.088,1.699  C19.212,44.395,30.762,40,43.333,40l13.334-0.003c10.947,0,19.856-8.845,19.986-19.763c-2.041-1.83-4.264-3.457-6.653-4.838v4.598  c0,7.354-5.979,13.336-13.333,13.336L43.333,33.333z"></path><path d="M43.333,26.666l13.334-0.002c3.675,0,6.666-2.992,6.666-6.67v-7.67C59.157,10.846,54.685,10,50,10  c-16.328,0-30.352,9.801-36.565,23.831C22.438,29.283,32.575,26.666,43.333,26.666z"></path><path d="M56.667,73.333H43.333c-6.992,0-13.147,3.613-16.725,9.066C33.19,87.161,41.257,90,50,90  c17.425,0,32.204-11.159,37.688-26.706C78.938,69.587,68.242,73.333,56.667,73.333z"></path></svg></svg> <!----></g></g> <g transform="translate(62.79999923706055,4.69758415222168)"><g data-gra="path-name" fill-rule="" class="tp-name iconsvg-namesvg" transform="translate(0,0)"><g transform="scale(0.98)"><g><path d="M15.71-24.79L15.71-30.19 22.37-30.19 22.37-24.79 35.75-24.79Q35.79-24.79 35.79-24.76L35.79-24.76 35.79-19.2Q35.79-19.16 35.75-19.16L35.75-19.16 22.74-19.16Q23.12-17.2 23.64-15.62L23.64-15.62Q24.52-13.1 25.64-11.1L25.64-11.1Q26.81-8.9 28.81-6.42L28.81-6.42Q29.58-5.52 30.7-4.44L30.7-4.44Q32.85-2.46 34.3-1.85L34.3-1.85Q35.33-1.38 35.84-1.34L35.84-1.34 35.84 4.26 35.62 4.26Q32.37 4.26 28.32 1.71L28.32 1.71Q27.42 1.1 26.89 0.68L26.89 0.68Q24.35-1.3 22.17-4.06L22.17-4.06Q20.92-5.71 19.95-7.4L19.95-7.4Q19.42-8.28 19.07-9.07L19.07-9.07 19.03-9.07Q18.04-7.05 16.39-4.72L16.39-4.72Q15.49-3.52 14.48-2.37L14.48-2.37Q13.05-0.86 12.26-0.2L12.26-0.2Q10.59 1.21 9.32 2L9.32 2Q5.49 4.26 2.46 4.26L2.46 4.26 2.24 4.26 2.24-1.32Q2.24-1.36 2.75-1.45L2.75-1.45Q4.48-1.96 6.61-3.74L6.61-3.74Q7.65-4.59 8.88-5.98L8.88-5.98Q10.15-7.45 10.92-8.61L10.92-8.61Q12.26-10.59 13.27-12.72L13.27-12.72 14-14.39Q14.61-16.08 15.03-17.69L15.03-17.69Q15.18-18.33 15.31-19.16L15.31-19.16 2.97-19.16Q2.92-19.16 2.79-19.82L2.79-19.82Q2.68-20.13 1.52-24.79L1.52-24.79 15.71-24.79ZM15.29-2.77L15.29-2.79 21.77-2.79Q22.57-1.47 23.38 1.47L23.38 1.47Q23.84 3.23 23.84 4.39L23.84 4.39 17.36 4.39 17.36 4.37Q17.36 3.1 16.06-0.88L16.06-0.88Q15.67-2.04 15.29-2.77L15.29-2.77ZM41.92-30.5L41.92-30.5Q49.26-30.48 54.54-30.48L54.54-30.48 73.15-30.48 73.15-25.93 46.85-25.93 46.85-11.47Q46.85-4.15 46.03-1.52L46.03-1.52Q45.11 1.8 43.31 3.05L43.31 3.05Q41.62 4.39 39 4.39L39 4.39 38.89 4.39 38.89-1.23Q39.16-1.23 39.53-1.8L39.53-1.8Q40.54-3.47 40.54-12.72L40.54-12.72 40.54-30.48Q41.68-30.48 41.92-30.5ZM51.26-25.14L51.26-25.14 57.57-25.14Q57.22-24.39 56.84-23.2L56.84-23.2 72.8-23.2 72.8-8.02 64.01-8.02 64.01 4.39 56.76 4.39Q56.71 4.39 56.43 3.36L56.43 3.36Q56.32 3.08 55.31-0.15L55.31-0.15 57.33-0.15 57.33-8.02 55.72-8.02Q55.7-8.02 55.39-8.94L55.39-8.94 54.29-12.15 54.27-12.15 54.27-8.02 48.34-8.02 48.34-23.2 50.36-23.2Q50.38-23.2 50.67-24.02L50.67-24.02Q51-24.72 51.26-25.14ZM66.84-18.98L54.27-18.98 54.27-17.51 66.84-17.51 66.84-18.98ZM66.84-13.67L54.27-13.67 54.27-12.19 66.84-12.19 66.84-13.67ZM49.66-6.31L49.66-6.57 55.9-6.57 55.9-6.55Q55.9-1.96 54.87 0L54.87 0Q53.17 3.69 47.94 3.69L47.94 3.69 47.94-1.63Q48.67-1.63 49.26-3.23L49.26-3.23Q49.66-4.46 49.66-6.31L49.66-6.31ZM64.95-6.15L64.95-6.57 71.17-6.57 71.17-6.13Q71.17-3.23 72.29-1.93L72.29-1.93Q72.62-1.63 72.88-1.63L72.88-1.63 72.88 3.69Q67.59 3.69 65.9-0.13L65.9-0.13Q64.95-2.24 64.95-6.15L64.95-6.15ZM85.17-28.23L85.17-30.85 91.47-30.85 91.47 4.39 85.17 4.39 85.17-0.68 77.83-0.68 76.42-5.95 85.17-5.95 85.17-11.82 78.57-11.82 77.12-17.09 85.17-17.09 85.17-22.98 77.83-22.98 76.42-28.23 85.17-28.23ZM96-30.85L96-30.85 102.24-30.85Q102.28-30.85 102.28-30.83L102.28-30.83 102.28-28.23 110.32-28.23 110.32-22.98 102.28-22.98 102.28-17.09 109.62-17.09 109.62-11.82 102.28-11.82 102.28-5.95 110.32-5.95 110.32-0.68 102.28-0.68 102.28 4.39 95.95 4.39 95.95-30.83Q95.95-30.85 96-30.85ZM118.13-31.11L118.13-31.11 124.41-31.11Q124.48-31.11 124.61-30.04L124.61-30.04 137.09-30.04 137.09-30.06Q137.09-30.15 137.24-31.11L137.24-31.11 143.55-31.11Q143.44-30.63 143.33-30.04L143.33-30.04 147.88-30.04 147.88-26.24Q147.88-26.19 147.83-26.19L147.83-26.19 143.17-26.19Q143.2-25.36 143.22-25.18L143.22-25.18 136.93-25.18Q136.89-25.18 136.89-25.22L136.89-25.22Q136.85-25.86 136.85-26.13L136.85-26.13Q136.82-26.17 136.82-26.19L136.82-26.19 124.87-26.19Q124.85-25.53 124.8-24.81L124.8-24.81 118.5-24.81Q118.52-25.88 118.52-26.19L118.52-26.19 115.03-26.19 113.6-30.04 118.34-30.04 118.34-30.06Q118.34-30.28 118.13-31.11ZM114.19-18.81L114.19-24.04 147.85-24.04 147.85-18.81 145.79-18.81 145.79-15.64 117.77-15.64Q117.73-15.67 117.07-17.29L117.07-17.29Q116.46-18.74 116.46-18.81L116.46-18.81 114.19-18.81ZM141.55-20.21L120.5-20.21 120.5-19.07 141.55-19.07 141.55-20.21ZM113.82-14.92L113.86-14.94 147.57-14.94 147.57-11.47 134.85-11.47 134.34-11.12 134.34-11.1Q135.88-8.31 135.88-8.24L135.88-8.24 135.88 4.24Q135.88 4.26 135.83 4.26L135.83 4.26 128.5 4.26 127.09 1.54 129.9 1.54 129.9 0.33Q127.92 1.05 124.65 1.76L124.65 1.76Q121.86 2.4 117.11 2.9L117.11 2.9Q115.8 3.01 114.39 3.05L114.39 3.05 114.37 3.01Q114.39 1.1 114.39 0L114.39 0 114.39-0.37Q114.39-0.42 114.46-0.42L114.46-0.42Q116.13-0.42 121.75-1.36L121.75-1.36Q126.54-2.31 128.98-3.34L128.98-3.34Q129.75-3.69 129.9-3.82L129.9-3.82 129.9-4.42 129.9-4.42Q127.38-3.47 122.48-2.66L122.48-2.66Q117.14-1.87 114.46-1.87L114.46-1.87 114.37-1.87Q114.39-3.89 114.39-4.94L114.39-4.94 114.39-5.3Q114.39-5.34 114.43-5.34L114.43-5.34Q116.06-5.34 121.77-6.26L121.77-6.26Q126.52-7.16 128.83-8.15L128.83-8.15Q129.48-8.48 129.51-8.53L129.51-8.53 129.51-8.55Q129.31-8.92 129.31-8.99L129.31-8.99Q126.17-8.04 121.79-7.36L121.79-7.36Q116.92-6.59 114.37-6.59L114.37-6.59 114.37-6.61Q114.39-8.59 114.39-9.67L114.39-9.67 114.39-10.02Q114.39-10.09 115.4-10.13L115.4-10.13Q121.09-10.7 125.09-11.45L125.09-11.45 125.09-11.47 115.27-11.47Q115.25-11.47 114.13-14.22L114.13-14.22Q114.06-14.33 113.82-14.92L113.82-14.92ZM140.38-10.13L140.38-10.15 146.32-10.15 146.32-10.13 142.45-5.27 142.45-5.25Q142.45-2.94 144.34-0.94L144.34-0.94Q145.52 0.07 146.32 0.2L146.32 0.2Q146.43 0.22 146.47 0.22L146.47 0.22 146.47 0.62Q146.47 1.87 146.49 4.39L146.49 4.39 146.34 4.39Q142.34 4.39 139.5 1.52L139.5 1.52Q139.5 1.49 139.04 0.99L139.04 0.99Q137.64-0.94 137.35-2.64L137.35-2.64Q137.22-3.19 137.22-4.15L137.22-4.15 137.22-6.35Q137.53-6.75 140.38-10.13L140.38-10.13Z" transform="translate(-1.5199999809265137, 31.110000610351562)"></path></g> <!----> <!----> <!----> <!----> <!----> <!----> <!----></g></g> <g data-gra="path-slogan" fill-rule="" class="tp-slogan iconsvg-slogansvg" fill="#2966CC" transform="translate(-13.788604736328125,40.790000915527344)"><rect width="0"></rect> <rect x="174.010009765625" width="0"></rect> <g transform="translate(0,0)"><g transform="scale(1)"><path d="M2.98-7.30L0.18-7.30L0.18-8.25L6.85-8.25L6.85-7.30L4.06-7.30L4.06 0L2.98 0L2.98-7.30ZM14.30 0L13.49-2.39L10.15-2.39L9.29 0L8.17 0L11.28-8.25L12.54-8.25L15.52 0L14.30 0ZM11.82-7.03L10.51-3.38L13.08-3.38L11.86-7.03L11.82-7.03ZM17.69-8.25L18.81-8.25L18.81 0L17.69 0L17.69-8.25ZM28.38-8.25L25.27-3.34L25.27 0L24.14 0L24.14-3.34L21.03-8.25L22.34-8.25L24.68-4.28L27.07-8.25L28.38-8.25ZM35.83-3.07L35.83-8.25L36.95-8.25L36.95-2.93Q36.82 0.05 33.57 0.14L33.57 0.14Q30.55 0.05 30.42-2.75L30.42-2.75L30.42-8.25L31.54-8.25L31.54-3.07Q31.59-0.81 33.62-0.77L33.62-0.77Q35.83-0.81 35.83-3.07L35.83-3.07ZM45.12 0L44.31-2.39L40.97-2.39L40.12 0L38.99 0L42.10-8.25L43.36-8.25L46.34 0L45.12 0ZM42.64-7.03L41.33-3.38L43.90-3.38L42.69-7.03L42.64-7.03ZM49.68-8.25L53.83-1.58L53.83-8.25L54.91-8.25L54.91 0L53.65 0L49.46-6.67L49.41-6.67L49.41 0L48.33 0L48.33-8.25L49.68-8.25ZM63.18-8.25L67.32-1.58L67.32-8.25L68.41-8.25L68.41 0L67.14 0L62.95-6.67L62.91-6.67L62.91 0L61.82 0L61.82-8.25L63.18-8.25ZM77.66-4.10L77.66-4.10Q77.47-7.35 74.77-7.53L74.77-7.53Q72.02-7.39 71.89-4.10L71.89-4.10Q72.02-0.90 74.77-0.77L74.77-0.77Q77.47-0.95 77.66-4.10ZM78.78-4.10L78.78-4.10Q78.51 0 74.77 0.14L74.77 0.14Q70.98 0 70.71-4.10L70.71-4.10Q70.94-8.38 74.77-8.47L74.77-8.47Q78.51-8.34 78.78-4.10ZM82.44-8.25L86.59-1.58L86.59-8.25L87.67-8.25L87.67 0L86.41 0L82.22-6.67L82.17-6.67L82.17 0L81.09 0L81.09-8.25L82.44-8.25ZM102.52-8.25L102.52 0L101.44 0L101.44-4.87Q101.44-5.54 101.44-6.94L101.44-6.94L99.09 0L97.97 0L95.67-6.94L95.62-6.94Q95.62-6.45 95.67-5.45L95.67-5.45Q95.67-4.96 95.67-4.87L95.67-4.87L95.67 0L94.54 0L94.54-8.25L96.16-8.25L98.55-1.26L100.90-8.25L102.52-8.25ZM111.68-4.10L111.68-4.10Q111.50-7.35 108.79-7.53L108.79-7.53Q106.04-7.39 105.91-4.10L105.91-4.10Q106.04-0.90 108.79-0.77L108.79-0.77Q111.50-0.95 111.68-4.10ZM112.80-4.10L112.80-4.10Q112.53 0 108.79 0.14L108.79 0.14Q105.01 0 104.74-4.10L104.74-4.10Q104.96-8.38 108.79-8.47L108.79-8.47Q112.53-8.34 112.80-4.10ZM116.46-8.25L120.61-1.58L120.61-8.25L121.69-8.25L121.69 0L120.43 0L116.24-6.67L116.19-6.67L116.19 0L115.11 0L115.11-8.25L116.46-8.25ZM130.58-3.47L128.06-3.47L128.06-4.42L131.66-4.42L131.66 0L130.94 0L130.67-1.04Q129.73 0.09 127.97 0.14L127.97 0.14Q126.30 0.14 125.40-0.72L125.40-0.72Q124.05-1.98 124.09-4.19L124.09-4.19Q124.41-8.29 128.01-8.47L128.01-8.47Q131.08-8.29 131.53-5.77L131.53-5.77L130.45-5.77Q130.00-7.48 127.97-7.53L127.97-7.53Q125.40-7.35 125.26-4.15L125.26-4.15Q125.26-0.72 128.01-0.72L128.01-0.72Q129.00-0.72 129.73-1.26L129.73-1.26Q130.63-1.98 130.58-3.47L130.58-3.47ZM140.91-4.10L140.91-4.10Q140.73-7.35 138.03-7.53L138.03-7.53Q135.28-7.39 135.14-4.10L135.14-4.10Q135.28-0.90 138.03-0.77L138.03-0.77Q140.73-0.95 140.91-4.10ZM142.04-4.10L142.04-4.10Q141.77 0 138.03 0.14L138.03 0.14Q134.24 0 133.97-4.10L133.97-4.10Q134.20-8.38 138.03-8.47L138.03-8.47Q141.77-8.34 142.04-4.10ZM144.35-8.25L145.47-8.25L145.47-0.99L149.67-0.99L149.67 0L144.35 0L144.35-8.25ZM151.93-8.25L153.06-8.25L153.06 0L151.93 0L151.93-8.25ZM161.40 0L160.59-2.39L157.26-2.39L156.40 0L155.27 0L158.38-8.25L159.65-8.25L162.62 0L161.40 0ZM158.92-7.03L157.62-3.38L160.19-3.38L158.97-7.03L158.92-7.03ZM165.97-8.25L170.11-1.58L170.11-8.25L171.19-8.25L171.19 0L169.93 0L165.74-6.67L165.69-6.67L165.69 0L164.61 0L164.61-8.25L165.97-8.25Z" transform="translate(-0.18031555221637866, 8.474830954169796)"></path></g></g></g></g></g><defs v-gra="od"></defs></svg>